<?xml version="1.0" encoding="utf-8"?>
<!-- Generator: Adobe Illustrator 17.1.0, SVG Export Plug-In . SVG Version: 6.00 Build 0)  -->
<!DOCTYPE svg PUBLIC "-//W3C//DTD SVG 1.1//EN" "http://www.w3.org/Graphics/SVG/1.1/DTD/svg11.dtd">
<svg version="1.1" id="Layer_5" xmlns="http://www.w3.org/2000/svg" xmlns:xlink="http://www.w3.org/1999/xlink" x="0px" y="0px"
     viewBox="0 0 400 400" enable-background="new 0 0 400 400" xml:space="preserve">
<g transform="rotate(315, 200, 200)">
<path fill-opacity="0.1" fill="#76B929" d="M210.2,92.6c-1.6,14.1-13,25.4-27.1,27.1c-18.5,2.1-34.5-12.4-34.5-30.7V31.6c0-2.5,2-4.4,4.4-4.4h2.8
    c2.5,0,4.4,2,4.4,4.4V65c5.2-4.3,12-6.9,19.2-6.9C197.8,58.1,212.3,74,210.2,92.6z M198.9,89c0-10.6-8.7-19.2-19.3-19.2
    c-10.6,0-19.2,8.5-19.2,19.2c0,10.7,8.5,19.3,19.2,19.3C190.2,108.3,198.9,99.6,198.9,89z"/>
<path fill-opacity="0.1" fill="#76B929" d="M135.2,50.4h-2.8c-2.5,0-4.4,2-4.4,4.5v38.8c4.1,0.3,8.1,1.3,11.7,2.8V54.9
    C139.6,52.4,137.6,50.4,135.2,50.4z"/>
<path fill-opacity="0.1" fill="#76B929" d="M133.6,38.7h0.3c3.2,0,5.7-2.6,5.7-5.7v-0.1c0-3.2-2.6-5.7-5.7-5.7h-0.3c-3.2,0-5.7,2.6-5.7,5.7V33
    C127.9,36.2,130.5,38.7,133.6,38.7z"/>
<path fill-opacity="0.1" fill="#76B929" d="M70.9,58.1c7.2,0,13.9,2.5,19.2,6.9V31.6c0-2.5,2-4.4,4.4-4.4h2.8c2.5,0,4.4,2,4.4,4.4V89
    c0,18.3-16,32.8-34.5,30.7c-14.1-1.6-25.4-13-27.1-27.1C38.1,74,52.6,58.1,70.9,58.1z M70.9,108.3c10.6,0,19.2-8.7,19.2-19.3
    c0-10.6-8.5-19.2-19.2-19.2c-10.7,0-19.3,8.5-19.3,19.2C51.6,99.6,60.3,108.3,70.9,108.3z"/>
<path fill-opacity="0.1" fill="#76B929" d="M115.3,50.4h2.8c2.5,0,4.4,2,4.4,4.5v38.8c-4.1,0.3-8.1,1.3-11.7,2.8V54.9C110.8,52.4,112.8,50.4,115.3,50.4
    z"/>
<path fill-opacity="0.1" fill="#76B929" d="M116.8,38.7h-0.3c-3.2,0-5.7-2.6-5.7-5.7v-0.1c0-3.2,2.6-5.7,5.7-5.7h0.3c3.2,0,5.7,2.6,5.7,5.7V33
    C122.5,36.2,120,38.7,116.8,38.7z"/>
</g>
</svg>
